<svg id="Layer_1" data-name="Layer 1" xmlns="http://www.w3.org/2000/svg" viewBox="0 0 332.81 303.39"><defs><style>.cls-1{fill:#fff;}</style></defs><title>squiz_brushmarks copy</title><path class="cls-1" d="M272.71,253.47h0s0,0,0,0h0l0,0h0Z"/><path class="cls-1" d="M95.09,246l0,.06,0-.07Z"/><path class="cls-1" d="M10.69,168.23a4.58,4.58,0,0,1,0-3.47c.21-.44.27-.81-.22-1s-.1-.66-.16-.91c-.34-1.47.75-3.18-.73-4.47-.15-.13-.08-.73.09-1,1-1.5.45-3.07,0-4.64a6.78,6.78,0,0,0-.35,2,24.69,24.69,0,0,1-.08,5.89c-.06.47.12,1-.51,1.25-.8.34-.8.91-.61,1.72a8.06,8.06,0,0,1,.19,3.93A4.39,4.39,0,0,0,9.11,171c-.18-1,.47-2.06,0-3.09a.54.54,0,0,1,.4-.64c.3,0,.48.22.5.53,0,.91.08,1.82.09,2.73a2.43,2.43,0,0,0,.89,2.21C10.73,171.25,11.16,169.75,10.69,168.23Zm-.89-3.46c-.19.58,0,1.23-.42,1.85-.62-1.29-.4-2.6-.48-3.87,0-.09.16-.21.27-.28s.34,0,.47.18A2.19,2.19,0,0,1,9.8,164.77Z"/><path class="cls-1" d="M43.6,178.36c1.58,4.25,3.41,8.4,4.77,12.74A29.77,29.77,0,0,0,43.6,178.36Z"/><path class="cls-1" d="M95.14,241.68h0c1.25,1,3,1.25,3.92,2.75.17.29.82.32,1.3,0a4,4,0,0,1-.57-1.24,1,1,0,0,0-1.07-.86c-.82.1-.8.2-1-.1,0-.06-.12-.09-.16-.15-.44-.78-.68-1.8-1.47-2.21s-1.41,1-2.37.87a3.59,3.59,0,0,0-.06.36A1.74,1.74,0,0,0,95.14,241.68Zm.32-.64c.12,0,.24.27.36.41l-.65.16C95.23,241.39,95.05,241,95.46,241Z"/><path class="cls-1" d="M34.48,225.49l-.1-.15c0,.11,0,.22.08.32S34.5,225.52,34.48,225.49Z"/><path class="cls-1" d="M32.67,221.73a2,2,0,0,1-.51-1.46c.08-1.17-.61-2.17-1.68-3.4,0,1.3-.35,2.41.06,3,1.05,1.49,1.72,3.3,3.22,4.42.42.3.44.72.62,1.06A6.57,6.57,0,0,0,32.67,221.73Z"/><path class="cls-1" d="M34.46,225.66v0c-.28,0,.14.29,0,0Z"/><path class="cls-1" d="M17.54,186.72a9.68,9.68,0,0,0,.47,3.59,4.32,4.32,0,0,1,.07,2.05c0,.09-.35.08-.54.12.13.34.07.89.6.81.11,0,.71-.26.65-.8A25.29,25.29,0,0,0,17.54,186.72Z"/><path class="cls-1" d="M331.91,145.64c.17-1.64,1.15-3.12.83-4.89-.21.89-.93,1.51-1,2.51a2.41,2.41,0,0,1-1.51,2.43c-.35-.29-.93-.5-.68-1.08.34-.78.09-1.6.25-2.38a.33.33,0,0,0,.2-.4c.31-.53.12-1.11.16-1.66h0c.19-.19.4-.56.57-.54,1.4.11,1.26-.69,1.1-1.56-1.07-.12-1.05,1.27-2,1.2-.13-.94.4-1.73.57-2.61.11-.63.84-1.66-.78-1.24-.21.06-.34-.23-.28-.43.15-.48-.09-1,.46-1.44s.74-3.41.35-3.88a.73.73,0,0,0-.54-.19c-1,.07-.88-.43-.54-1s.69-1.05-.12-1.34c-1.36-.48-1.35-.88-.06-1.44a.47.47,0,0,0,.29-.67c-.82-1.23-.46-2.74-1.17-4.08-1.05-2-2.42-3.86-2.87-6.14.2-1-.33-1.34-1.26-1.27h0v-.42a7.35,7.35,0,0,0-.64-4.3,7.53,7.53,0,0,1-.64-2.2,21.21,21.21,0,0,0-.37-3.32c-.29-.93-1.66-1.46-1.06-2.78a44.32,44.32,0,0,1-2.4-5.07c-.15-.38-.38-.93-.67-1-1.38-.38-.89-1.84-1.62-2.62-.3-.32.24-1.11-.11-1.77-.67-1.28,0-2.83-.66-4.17-.09-.19,0-.6.43-.46.74.24.65-.32.62-.68a11.06,11.06,0,0,0-1.95-5,4.5,4.5,0,0,1-1.18-2.57,2.48,2.48,0,0,0-1.19-2.33,1.61,1.61,0,0,1-.92-1.51c.07-1.53-1.08-2.62-1.86-3.73s-1.49-1.84-1.49-3.13c0-.78-.18-1.2-1.1-.77-.44.21-.44-.32-.6-.61-.46-.81.76-1.12.48-1.84.14-1.17-.48-2.06-1-3.11-.82.94,0,1.53.13,2.2s-.36.5-.73.42c-1.23-1.32-1-3.24-1.76-4.76-.78.24-.77,1.58-1.76.88s.12-1.33,0-2.08c-1.87,0-2.32-1.16-2-3.09l-1.17,1a1.77,1.77,0,0,1-.59-1.91c.06-.5.19-1.25-.13-1.41-1.26-.61-1.2-1.87-1.69-2.86-.2-.41-.58-.84-.82.12-.18.7-.56.24-.88,0-.64-.56.08-1.59-.75-2.09-.32.55-.63,1.14-1.4.91-.59-.18-.62-.71-.57-1.22a1.09,1.09,0,0,0-.49-1.1c-1.27-.59-1.72-2.17-3.07-2.58-.91-.28-.87-.79-.62-1.43a1.52,1.52,0,0,0,.14-1.21c-.23.16-.62.49-.67.45-.55-.5-1.46-.52-1.66-1.5a26,26,0,0,0-1-3.17c-.21-.6-.26-1.08-1.24-.59s-.16-.79-.74-1.13c-.35.69-1.75.21-1.63,1.57,0,.07-.19.19-.31.22-.35.09-1.62-.9-1.74-1.35-.16-.65.32-.94.79-1s1.06,0,.5-.75c-.13-.19.05-.57,0-.82-.27-.79,1.07-2.44-1.17-2.25-.16,0-.43-.53-.52-.85-.16-.52.11-1.12-.24-1.61-.6.26-.19,1-.48,1.35-1.1-.23-1.32-1.53-2.41-1.5a.68.68,0,0,0-.81-.18c0-.22-.07-.44-.1-.66.13-.28,0-.44-.28-.46h0a.37.37,0,0,0-.46-.32v-.49c.32,0,.74.19.87-.27s-.21-.56-.59-.63c-.73-.12-1,.26-1.06.91-.2.27-.36.63-.79.52a.45.45,0,0,1-.34-.64,2.59,2.59,0,0,0,.15-.61c0-.65-.29-1-.9-1.24s-.77.32-1.05.66-.3.83-.88.74c0-.13-.15-.25-.15-.38.07-2,.06-2-1.91-2.65a8.84,8.84,0,0,1-3.83-2.5c-.22.39-.37.62-.49.86s0,.72-.55.93c-.31-.39-1-.5-.79-1.33s0-1-.66-.43a1.56,1.56,0,0,1-.59.16c-.09-1.38-1.28-.64-1.9-1-.47-.27-1.47-.35-.42-1.18a.33.33,0,0,0,0-.32c-.38-.45-2.67-.75-3-.25-.53.83-1,.14-.95-.07.37-1.71-1.19-1.54-2-2.1s-1.48.45-2.2-.07c-.3,1.52-1.25.53-1.4.16-.49-1.14-2.25-.23-2.45-1.65-1.83,0-3.43-1-5.23-1.2a37.55,37.55,0,0,1-7-1.44,12.56,12.56,0,0,0-4.38-1.06c-.34,0-.74.08-1-.25-1-1.41-2.46-1-3.78-.93-.39,0-.72.26-1.16-.06A5.62,5.62,0,0,0,220,6.56c-3.62-.21-7.17-1.08-10.78-1.32-2.87-.2-5.64-1-8.55-1-5.84,0-11.66.31-17.49.45-2.58.06-5.19-.07-7.74.21a147.93,147.93,0,0,0-26.17,5,159.48,159.48,0,0,0-23.89,9.2A134.1,134.1,0,0,0,103.15,33c-4.2,3.19-8.16,6.65-12,10.21a82.55,82.55,0,0,0-7.8,8c-.26.31-.67.56-.43,1.07-.31.06-.74-.13-.83.37a1,1,0,0,0,.1.39l.68-.41c.24-.14.49-.26.73-.39a7.93,7.93,0,0,0,2.57-1.79c.67-.57,1.6-.48,2.25-1.18s1.85-1.08,2.54-1.83a7.29,7.29,0,0,1,3-1.76c.75-.29,1.1-1.18,1.93-1.14,2.18.13,3.79-1.45,5.77-2,.83-.21,1.37-1.5,2.68-1,.33.13.68-.48.85-.84.32-.65.53-1.36,1.33-.43.73-.57,1.48-.29,2.22,0,.35-1.41,1.63-.73,2.46-1,1.21-.44,1.93-1.57,3.06-2A76.11,76.11,0,0,1,122.33,34a57,57,0,0,0,7.61-2.52c1.45-.62,3.16-.5,4.45-1.58,2.65.09,4.8-1.62,7.3-2.09,1.33-.25,2.28-1.88,3.92-1.09.07,0,.23-.16.36-.19a17.6,17.6,0,0,1,7.84-.1,39,39,0,0,0,8.11.66,1.62,1.62,0,0,0,1.5-.5c.37-.44,1.22-.84,1.67-.41,1.49,1.44,3.33.85,5,1.06,3,.36,6,.38,8.94.91,2.68.49,5.36,1,8,1.68a94.31,94.31,0,0,1,11.61,3.57c3.77,1.48,7.53,3,11.35,4.39a51.37,51.37,0,0,1,8.23,3.33,32.22,32.22,0,0,1,11.1,9.41A11.52,11.52,0,0,0,231.62,53a73.22,73.22,0,0,1,9,8.88A106.35,106.35,0,0,1,255,82.54,104.17,104.17,0,0,1,266.81,122a109,109,0,0,1,.07,18.51,35.88,35.88,0,0,0-.46,3.75c.08,2.43.1,4.88,0,7.31a24.75,24.75,0,0,1-.41,4.17c-.36,1.55-1.06,3.1-.91,4.71a23.61,23.61,0,0,1-.91,7.39c-1,4.58-3.34,8.58-5.42,12.68-1,1.89-2.61,3.42-3.33,5.5-.53,1.51-2,2.22-2.87,3.51-1.3,2-2.73,3.92-4.06,5.9a58.33,58.33,0,0,1-6.52,7.67c-1.2,1.25-2.09,2.86-3.54,3.79-4.06,2.61-7.77,5.73-12,8.14-1.85,1.06-3.28,2.65-5.22,4.1a9.61,9.61,0,0,1,3.29.67c-.61,1-.62,1-1.28,1.16a14.63,14.63,0,0,0-3.58,1.08c-.87.53-1.9.48-2.78,1.36s-2.71.91-3.94.66a4.44,4.44,0,0,0-2.93.62c-.74.3-1.06.73-.41,1.41.41.43.09.71-.1,1.08-.33.67-.85,1.3-.62,2.13.63.14.84-1.17,1.57-.48,1.08,1,1,1.8-.12,2.73a8.54,8.54,0,0,0-1.25,1c-.66.75-1.79.68-2.71,1-.68.2-.47-.48-.59-.82s-.33-.19-.47-.06-.31.46-.52.64c-.71.64-1-.42-1.53-.4-.87,0-.05,1.43-.82,1.37-1.09-.08-2.06.43-3.08.42-3.1,0-6.19.76-9.31.23a1.46,1.46,0,0,0-.62.06,18.58,18.58,0,0,1-6,.18,43.13,43.13,0,0,0-10,.23,95.26,95.26,0,0,1-22.89-.07,3.7,3.7,0,0,0-2.23-.22,2.84,2.84,0,0,1,1.46.52,41,41,0,0,1,7,3.26,12.27,12.27,0,0,0,3.92,1.41,72,72,0,0,1,7.5,1.71c.75.23,1.76.88,2.39.38.86-.67,1.25.17,1.85.21a.54.54,0,0,1,.49.58.64.64,0,0,1-.56.55c-1.79.32-3.58.46-5.21-.56a1.66,1.66,0,0,0-2.18.09,3.22,3.22,0,0,0-1.48,2.35c0,.31-.22.68-.68.65s-.41-.32-.4-.59c.06-1.19-.71-.69-1.26-.64a6.56,6.56,0,0,1-1.87.05c-.61-.16-2,.44-1.58-1.16,0-.18-.33-.35-.38-.08-.21,1.16-1.46.24-2.07,1,1.22.42,2.37.57,3.3,1.48h-2.89c-2-1-4.13-.76-6.18-1.22-1.62-.37-3.31-.42-4.79-1.28.91-.73,2.14-.09,3.14-.69L143.37,242a7.84,7.84,0,0,1-1.1-2.61c-.11-.46.16-1.24-.42-1.45-1.17-.41-1.9-1.86-3.43-1.39a1.51,1.51,0,0,1-1-.11c-.56-.28-1.82-.38-.58-1.43.14-.12.3-.37.08-.55-.85-.69-1-2-2.3-2.32-1.76-.44-3.48-1-5.21-1.53a11.89,11.89,0,0,0-3.41-1.22,28.26,28.26,0,0,1-3.3-1.37,11,11,0,0,0-8.22-1.31,5.23,5.23,0,0,1-4.72-1.19c-1.43-1.23-3.27-1.69-5-2.37-1-.39-2.15.4-3-.85-.58-.86-1.49-1.82-2.88-1.41a.29.29,0,0,1-.2-.07A5,5,0,0,0,94.84,219a.65.65,0,0,1-.55-.78c.11-.57.51-.34.81-.2,4.33,2,8.8,3.54,13.3,5.09,1.67.58,2,.61,3.15-.08,0-.37-.33-.42-.55-.56-3.58-2.23-7.14-4.48-10.49-7a7.3,7.3,0,0,0-2.15-.82A17.18,17.18,0,0,1,92,211c-1-.94-1.41-2.44-3-2.7a.42.42,0,0,1-.33-.47c.08-.83-.58-.78-1.09-1-1-.36-2.52-.4-2.78-1.26-.49-1.62-1.55-1.11-2.48-1.12a12.66,12.66,0,0,0-2.17.38c0,.62,1.09.35,1,1-.26.55-.81.07-1.12.61a32.22,32.22,0,0,1,13.44,11.09c-3.89-.22-3.89-.22-6.6-2.17-.19.85.5,1.72-.1,2.71a14.55,14.55,0,0,0-3.46-1.92c-1-.26-2-.87-2.94.26-.89-1-.75-2.22-.71-3.38a1.08,1.08,0,0,1,.86.19.79.79,0,0,0,1-.13c-.35-.7-.94-.59-1.6-.58-1,0-1,0-.86.73a6,6,0,0,1,.42,2.64c-.89-.13-1.51,1.09-2.49.47-.09,1.22-1.48.79-2,1.51,2.39.69,4.68,1.36,5.94,3.67.06.12.22.18.32.28a20.56,20.56,0,0,1,3.36,4,34.87,34.87,0,0,0,11.39,11,19.9,19.9,0,0,1,4,2.86,9,9,0,0,0,2.46,1.81c1.93,1,2,1.36,1.19,3.51-.56.46-1.37-.34-2,.37.53.79,1.27.57,1.94.57.38.63.81.64,1.37.19.4-.34.93-1,1.43-.51.84.77,2,.74,2.91,1.41a8.79,8.79,0,0,0,3.67,1.81l.43.36c0,.14.07.29.11.43a4.89,4.89,0,0,1-.53,1.56c-.06.09.1.44.22.48a.59.59,0,0,0,.51-.2c.27-.62.23-1.39.91-1.8,1.85.36.17,1.6.63,2.4a4.52,4.52,0,0,0,1.8,0c1.91-.89,3.24.43,4.52,1.28a5.38,5.38,0,0,0,2.41,1.08c1.43.18,1.52.46,1.68,2.18.05.51,0,1.12.87,1.17,1.17.07,2.18,1.56,3.51.38.06-.06.4.09.53.22a10.27,10.27,0,0,1,1.3,1.34c1,1.4.92,1.38,2.28.51.37-.24.57-.6.9-.84s.49-.46.72-.24c1,1,2.49.71,3.69,1.2.57.23.65.67.66,1.18l.4.62a3.33,3.33,0,0,1,3-.23c3.14,1.11,6.56,1.29,9.58,2.84a6.33,6.33,0,0,0,2.24.28c2,.27,3.92,1.36,6.09.85,1.12-.26,2.13.74,3.36.77a29.26,29.26,0,0,0,4.49,0c.56-.08,1.1.16,1.45-.68.25-.6,1.25-.3,1.23.49,0,1,.47.83,1,.82s.56-.38.43-.85.15-.83.68-.75,1.06.19.63.93c-.16.27-.15.71.14.63,1.69-.43,3.28,1,5,.22a5,5,0,0,1,1.66-.15c.33,0,.79,0,.7-.5-.15-.85.54-1,1-1,.9.06.68.84.65,1.52a2.63,2.63,0,0,0,1.9-.74.38.38,0,0,1,.56.05c.2.26.09.5-.14.72a2.41,2.41,0,0,1-1.12.52,33.7,33.7,0,0,1-8.71,1.26c-5.31.13-10.62-.07-15.92-.22a28.92,28.92,0,0,1-8.42-1.6,3.63,3.63,0,0,0-1.38-.31c-2.27.17-4.33-.77-6.5-1.15a11.26,11.26,0,0,0-2.6-.11c-1,.06-1.41-.41-1.56-1.43-.55.37-.47,1.81-1.57.94a4,4,0,0,0-.46-2.13c.78-.45,1.29.21,2,.08.83-.16.88-.48.63-1.12l-.4-.62c-.25.21-.14,1-.76.58s-1.27-.52-1.71-1.19a2.31,2.31,0,0,0-.46,2.4,3.09,3.09,0,0,1,.31,2,6.69,6.69,0,0,1-3.29-.56,2.6,2.6,0,0,1-1.89-1.51c-.35-1-.85-1.4-1.23.06-.11.4-.52.31-.87.09a17.86,17.86,0,0,0-4.6-1.61c-1.55-.46-3.17-.84-4.73-1.37a36.43,36.43,0,0,1-5.7-2.13c-1.47-.79-3-1.44-4.51-2.15-3.71-1.77-7.38-3.64-11-5.5-1.12-.57-1.39-2.22-2.94-2.08A7,7,0,0,0,95.13,246c.07.25.12.53-.21.61a1.56,1.56,0,0,1-1.58-.22,32.68,32.68,0,0,0-4.16-2.82c-.45-.29-1.1-.65-1.28-1.31a7.21,7.21,0,0,1-.13-1c-.31.09-.41.71-.84.42a13.9,13.9,0,0,1-1.47-1.19c-1.11-1-3.06-1.51-2.35-3.7,0-.07-.15-.22-.26-.31-.46-.4-.25-.77.13-1s.94-.17,1,.35c.08.92.93,1.16,1.41,1.34.88.32,1.24,1,1.84,1.54,1.09,1,2,2.47,4,1.8.26-.09.78.5.94-.18.12-.5.48-1.32-.11-1.52-.87-.29-.87-1-1.2-1.56a3.74,3.74,0,0,0-4.59-2c-.22.07-.51.07-.54-.09-.15-.85-1-.64-1.42-1s-.28-1.46-1.17-.47a6.74,6.74,0,0,0-1.3-1.36,37,37,0,0,1-3.85-2c-.17-.14-.56-.08-.81,0-.4.12-.63.48-.14.69s.46.57.46,1-.17.76.41.74.79.18.44.72.09,1-.38,1.39c-1.43-.91-2.71-1.85-2.2-3.91a.64.64,0,0,0-.86-.7c-.67-1.29-.18-3.45-2.6-3.44-.13,0-.3-.29-.38-.47-.48-1.16-.73-2.46-2-3.08.37-1-.74-1.17-1-1.83l-2.1,0h0l2.1,0c-.78-1.42-.83-1.47-1.9-1.82,0,.35.2.48.47.57s.56.45.32.79-.62,0-.94,0c-.93-.43-.86-1.88-2.24-2.14.17.59.32,1,.41,1.46a.46.46,0,0,1-.41.6.92.92,0,0,1-.68-.42,1.15,1.15,0,0,1,.19-1.15c.19-.26.69-.44.35-.8-.73-.78-.69-2.15-2-2.53-.54-.16-1-.52-.39-1.19a.61.61,0,0,0,0-.56c-1-.64-.67-1.65-.9-2.54-.29-1.09-.52-2.56-1.37-3.19-1-.79-1.29-2-2.14-2.78-.05-.05-.1-.12-.16-.13-.66-.17-.3.37-.4.59-1.12.35-1-1-1.56-1.17-1.71-.65-1.57-2.1-1.88-3.29.59-.66,1.22,0,1.81-.42-.77.12-1-1-1.71-.69-.87.44-1.23,0-1.37-.63-.36-1.6-.86.17-1.25-.09-.61-.35-1.5-.35-1.24-1.56.22-1-.67-1.62-1.24-2.35-.89-1.11-2.23-2-2.12-3.72,0-.19-.11-.66-.44-.21-.18.24-.14.72-.55.18-.24-.32-.29-.49.13-.78s.22-1.77,0-1.7c-1.16.29-1-.47-.85-1.06s.72-.86.42-1.34c-.77-1.26-.62-2.88-1.63-4l0-1.27a.64.64,0,0,0-.44-.82c-.26-.38-.53-.55-.9-.1-.2.24-.4.53-.77.54l-.18-.44a8.38,8.38,0,0,0-.13-2.36c-.06-.19-.18-.44-.11-.59a3.31,3.31,0,0,0-.59-3.14c-.49-.75.43-1.77-1-2.4.85,1.88.19,3.65,1,5.25.31.57.49,1.22-.3,1.64-.32-.68-.48-1.7-1-2-.76-.4-.45-1.25-.71-1.36-.87-.39-1-1.11-1.14-1.83-.23-1-1.34-1.72-.79-2.94.05-.11-.15-.37-.28-.52a29.55,29.55,0,0,0-2.8-3.33c-.93-2.56-.85-5.26-1.07-8-.36,1.28-.08,2.62-.71,3.82a.74.74,0,0,0,.13.59c.65,1,.18,1.86-.11,2.77-.27.12-.57.57-.76-.07.13-.38-.73-.84-.12-1,1.19-.36.43-1.17.48-1.72s-.66-.64-.95-1-.93-1.15.34-1.25c.1,0,.24-.19.25-.3a.3.3,0,0,0-.38-.34c-.91.26-.89-.31-.86-.91,0-.36.06-.77-.43-.76s-.55.54-.55.92.21.66.24,1c.21,2.12,1.47,4,1.21,6.24.09.65.56,1.13.64,1.87s.6,1.77.66,2.73c1.23-.06,1.33,1.14,1.76,1.8a8.29,8.29,0,0,1,1.52,5c-.33.07-.84.2-.85-.25,0-1.74-1.51-2.95-1.32-5-.63.79-.57,1.32-.17,1.6a1.45,1.45,0,0,1,.54,1.27,11.43,11.43,0,0,0,1,3.34c.56,1.34.54,1.35,1.48.49,0,0,.13,0,.2,0s0-.09,0-.13,0,.08,0,.13c.29.9.58,1.8.88,2.7-.18.45.07,1-.27,1.39s-.07,1,.21,1.32c.44.57.79-.34,1.25-.19l-.33-1,.33,1c.06.15.13.3.19.44s0,.34.26.35c.12.92-.53,1.61-.71,2.51-.1-.67-.1-1.3-1-1.44a1.1,1.1,0,0,1-.83-.89c-.41-2.34-2.54-3.91-2.83-6.32,0-.18-.3-.43-.66-.59-2.12-.94-3.24-2.83-4.37-4.77a69.46,69.46,0,0,1-3.19-6.26c-.2-.43-.76-.63-.77-1.2,0-1.88-1.24-3.36-1.75-5.08-.05-.29-.19-.46-.52-.39.4-1.23-.89-1.93-1-3.06,0-.61-.53-.92-1.2-.48-.15.1-.39.51-.6.13s-.3-.81.09-.91c1.27-.34.87-.89.29-1.52a4.52,4.52,0,0,1-1-2.24,8.17,8.17,0,0,0-1.79-3.69,4.34,4.34,0,0,1-1.16-2.6c-.12-1.17-1.07-1.69-1.84-2.34-.46-.38-1.3,0-1.1.51.54,1.28.09,2.74.81,4a3.35,3.35,0,0,0,.71-.35,3.8,3.8,0,0,0,.82-.78,3.8,3.8,0,0,1-.82.78,3.35,3.35,0,0,1-.71.35c.09.76.2,1.51.29,2.27.4,3.25,1.88,6.26,2.26,9.52-.33.24-.64.61-1,0s-.12-1.41-.91-1.92c-.15.67.72,1.55,0,1.77-.85.26-.84.63-.43,1,.76.74.49,1.69.74,2.53a.85.85,0,0,0,.13.8l.14.48a13.27,13.27,0,0,0,1,5.71c.43,1.08-.28,3,1.79,3.26.37.05,0,.43-.21.5s-.44.32-.32.4c1.31.81.78,2.69,2.07,3.51.18.12.37.17.45.53a38.57,38.57,0,0,0,1.27,4.47A6.4,6.4,0,0,0,21.46,187c.64.72.47,1.73.55,2.63.06.59.26,1.36-.85,1.41a4.43,4.43,0,0,0,.42,1.93c-.07,2.64.1,3.33,1.2,4.71a2.56,2.56,0,0,0-.18-2c-.31-.59-.54-1.3.19-1.84a10.91,10.91,0,0,0,1.58,4.41c.74,1.47.45,3.57,2.42,4.39.28.12.27.6.29,1,0,.9-.43,2.09,1.2,2.09.26,0,.25.26.14.45-.39.72,0,1.17.46,1.67a4.69,4.69,0,0,1,.72,1.27c.74,2.09,2.54,3.71,2.72,6,0,.12.16.24.25.34,1.18,1.26,1.65,2.91,2.38,4.41.59,1.18.81,2.57,1.91,3.47a2,2,0,0,1,.42.69c1,1.73,1.58,3.57,3,5.16a35.42,35.42,0,0,1,3.5,4.82,81.2,81.2,0,0,0,6.83,8.88c.53.64.12,1.71,1.19,2.12,1.7.65,2.57,2.32,3.88,3.45s2.14,2.29,3.21,3.42c2.88,3,6.23,5.6,9,8.79.39.46.77,1.07,1.36.13.14-.23.48,0,.55.36.27,1.34,1.56,2.22,1.67,3.64,0,.18.13.49.38.37,1-.44.92.35,1.13.91.39,1,1.71.73,2.33,1.62.37.54.37-.67.9-.61s1.19-.11,1.59.15c.72.44,0,.76-.28,1.1,0,0,.1.29.18.31.83.17.35,1.18,1,1.5.52-.16-.26-1.17.58-1,2.1.48,4,1.27,5,3.45a7.25,7.25,0,0,0,1.07,1.68c1.26,1.57,3,2.46,4.62,3.54,3.77,2.55,8,4.25,12,6.46.26.14.58,0,.71.51.19.83,1.52.63,1.73,1.58.41-1.27,1.22-.52,1.76-.24,2.61,1.38,5.52,2,8.21,3.15.62.28,1,.89,1.75,1,2.78.31,5.31,1.61,8,2.16a53.3,53.3,0,0,0,6.77,1.08c3.89.26,7.8.3,11.68.77.87.1,1.92.38,2.65-.25.94-.81,1.76-.22,2.62,0,.37-.63.09-1.49.86-1.84.46.55,0,1.74,1.09,1.79.58,0,.51-.69.67-1.12,1,.13,1.84,1,3.11.64-.6-.68-1.58-.75-1.63-1.71a4,4,0,0,0-1.38-2.19,9,9,0,0,1-1.44-1.19,25.13,25.13,0,0,0-4.34-3.19c-.6-.41-1.23-1.18-2.18-.94-.16-.46-.38-1,.43-1,.64.05,1.26.41,2-.05a8.79,8.79,0,0,0-2.78-.82c-.55-.49-.93-1.19-1.88-1.12-.33,0-1-.52-.89-.68,1-1.2-.47-1.21-.76-1.78s-.42-.75-.89-.08-1,1.37-1.74,1.14-1.53-.1-2.25-.4c-4.4-1.86-9-3.22-13.27-5.5.75.32,1.7-2.18,2.29.23.1.44.58.37.86.13.49-.4.86-.23,1.32.06,1,.6,2.25.28,3.18,1.29a2.14,2.14,0,0,0,2.38.09c1.22-1.07,2.16,0,3.05.3,1.21.44,1.68.9,2.44.54a1.31,1.31,0,0,1,1.81.38c.31.46.42.64.87.2s.78,0,1.18.07a28.65,28.65,0,0,0,4.79.69c1.5,0,2.92,1.12,4.49.32.25-.13.38.08.51.24.86,1.1,2.18,1.08,3.37,1.37,1.84.46,3.82-.07,5.59.81.36.18.68.23.9-.14.65-1.06,1.45-.66,2.15-.16a1.67,1.67,0,0,0,2.12-.18c1.24-.84,1.44-.75,1.72.64.14.64-.44,1-.3,1.6l-1.75.31a6.37,6.37,0,0,0,.55,1.42,1.64,1.64,0,0,0,1.89.49c.48-.12.06-.59.15-.88a1.21,1.21,0,0,0,.54-1.56,1.6,1.6,0,0,1,1.64-1.75c1.52.2,1.52.2,2.05-1.3a3.13,3.13,0,0,1,1.45,1.38c.27.52.82,1,1.37.75,1.67-.65,3.28.27,5,0,0,1.52.78,2.09,2.13,2.24.37,0,.73.35,1.18.34a1,1,0,0,1,1.12,1c.07.84-.66.84-1.15.93a6.38,6.38,0,0,0-3.87,1.84.85.85,0,0,0-.91.8c-.48.69-1.57.42-2.07,1.23,1.43.62,3,.31,4.27.93.4.13.79.29,1.19.38a3.36,3.36,0,0,0,4.16-1.69,2.81,2.81,0,0,1,3-1.13,42.17,42.17,0,0,0,4.62.31c3.12.19,6.28.49,9.28-.82a3.34,3.34,0,0,1,1-.35,31.78,31.78,0,0,1,8.37.89c.9.17,1.25.11,1.66-.53.19-.28.33-.68.78-.52s.05.77.33,1.08c.47-.1.35-.87.83-.85,1.42.07,2.48-1.08,3.67-1.22,1.92-.22,2.73-1.28,3.27-3.06,1.35,1.6,2.88,1.18,4.15.51,2.16-1.14,4.76-.51,6.82-1.88.18-.12.55.05.83.05a3.12,3.12,0,0,0,1.23-.2c1.75-.68,3.36-1.71,5.29-2,1-.14,1.78-1.25,2.59-1.46a10.22,10.22,0,0,0,4.64-3,1.62,1.62,0,0,1,1.05-.57c.83-.1,1.65-.28,2.47-.45s1.6-.34,1.92-1.33,1.35-.62,1.88-1,.43-1.63,1.36-1.87c1.21-.31,1.53-1.29,2-2.23.27-.55.27-1.42.89-1.61,1.38-.44,1.7-1.51,2-2.69.09-.34.21-.82.84-.77-.13.84-.14,1.47,1.07,1.45s2.45.35,2.83-1.5c.2-1,.85-.82,1.65.14.51.61.46-.33.76-.38,1.2.06,1.55-.83,2-1.72-.62-.1-1,.07-1.17.6s-.34.72-.83.7c-.7-.16-.24-1.17-.69-1.21-1.52-.12-1.2-.86-.62-1.65a1.91,1.91,0,0,0,.29-1.56,1.59,1.59,0,0,1,1.09-1.78,5.88,5.88,0,0,0,2.88-1.38,4,4,0,0,1,.69-.47.77.77,0,0,1,1,.11.55.55,0,0,1,.11.75c-.5.75.06,2.27-1.61,2.21-.1,0-.3.45-.32.7a2.18,2.18,0,0,1-.7,1.25l-.41.07c-.55.07-1.56-.36-1.51.44.07,1.09,1.11,0,1.67.34.11.06.45-.24.68-.38a2.53,2.53,0,0,1,1.59.31l.2-.62c.36-1.09.05-2.33.52-3.3a9.93,9.93,0,0,0,.67-2.31c-.32-.24-1.13.17-1-.75.12-.64.32-1.31,1.05-1.28,1,.05.55.63.24,1.08-.32.25-.78.47-.32.94a.42.42,0,0,0,.61-.28c1.34-.54,2.87-.71,3.72-2.13.17-.3.56-.59.18-.87-.86-.62-.36-1.17-.13-1.81.49.23.56,1.14.89.84.71-.64,1.14-1.61,2.16-1.94-.6-1.46,1.17-2,1.25-3.34a1.56,1.56,0,0,1,2.06-1.27c.75.23,1-.26,1.42-.41,1.29-.42,1.31-2.24,2.86-2.41.57-.07,1-1.31,1.71-.68s.26,1.44,0,2.18a1.59,1.59,0,0,1-.22.35c-.53.45-1.27.82-.74,1.69.52-.6,1-1.32,1.89-1.35a2.86,2.86,0,0,0,2.19-2c.18-.65,1-.92,1.41-1.38.86-1,2.36-1.64,2-3.4-.14-.63-.06-1.25.95-.6.31.2,1.3-.59.72-1.25-.77-.87-.07-.91.38-1.34.61-.59,1.83-.66,1.75-1.89,0-.93,0-1.7,1.21-.85.43.31.34-.16.43-.36a11.43,11.43,0,0,1,2.29-3.89,1.62,1.62,0,0,0,.39-1.36,1.63,1.63,0,0,1,.68-1.63c.84-.53,1.38.08,2.11.62,0-2.36,2.2-3.31,2.58-5.28a1.11,1.11,0,0,1,1.41-.58c.49.17,1,.29,1.6.46a4.86,4.86,0,0,1,.69-2.43,3.84,3.84,0,0,0,.67-2.17c-.08-1.09.46-1.15,1.29-.69s.94.13,1.4-.67c.6-1,.19-2.3.86-3.09,1.3-1.55,1-3.66,2.2-5.22,1.42-1.87.39-4.4,1.59-6.36,0-.07-.05-.26-.12-.37-1-1.47.17-2.59.63-3.82s1.68-2.28,1-3.84a.91.91,0,0,1,.19-.78c1-1.23,1-2.82,1.53-4.19a8.34,8.34,0,0,0,.65-3.68,3.3,3.3,0,0,1,.08-1.26c.82-2.39.68-4.9.86-7.35.12-1.68,1-3.2.89-4.9,1.11-.69.6-1.59.5-2.57s-.65-1.79-.25-2.62c.94-1.93,1-4.2,2.37-6,.35-.44.61-1.25-.62-1.32-.46,0-.33-.89.23-1.23l.79,1.31a45.59,45.59,0,0,0-.23-5,3.51,3.51,0,0,1,1-2.55c.25,0,.47-.4.75-.14C331.2,146,331.48,145.76,331.91,145.64ZM79.57,217.83h0Zm.3-.25a.44.44,0,0,1-.23.25.44.44,0,0,0,.23-.25.52.52,0,0,0-.29-.59A.52.52,0,0,1,79.87,217.58Zm10.66,2.81c-.14.32-.32.68-.7.22a.55.55,0,0,1,.09-.75c.47-.48,1-.85,1.53-.11C91.36,220.28,90.71,220,90.53,220.39Zm12,10.75c-1.54-.78-3.26-1.11-3.65-3.07a1.87,1.87,0,0,1,.09-1.42c.28-.4.83-.76,1.11,0a7.76,7.76,0,0,0,2.14,2.63A1.53,1.53,0,0,1,102.57,231.14Zm2.67,1.82a1.08,1.08,0,0,1-1.14-1,.34.34,0,0,1,.33-.42c.63-.06,1,.39,1.28.68C105.7,232.72,105.54,233,105.24,233Zm.46-3.8a.58.58,0,0,1-.36-.42.59.59,0,0,1,.33-.47,3.53,3.53,0,0,1,2.15-.08C107.28,229.23,106.59,229.48,105.7,229.16Zm13.86-.08,0-.05Zm-.18-.13h0Zm-2.44,7.63a4.63,4.63,0,0,1-2.21-.54c-.75-.3-1.31-.82-2.24-.34-.64.33-1-.38-1.12-.91s.36-.75.85-.92a2.61,2.61,0,0,1,2.83.86c.71.75,1.17,1.05,2.06.49.42-.26.6.11.75.43A.93.93,0,0,1,116.94,236.58ZM114.28,229c1.44-.87,3-.25,4.55-.09l0,.43a1.75,1.75,0,0,0-.41.08C117,230.32,115.52,231,114.28,229Zm8.62,7.12c-.81-.06-1.72.47-2.58-.46a5.73,5.73,0,0,1,2.5-.78.65.65,0,0,1,.67.64C123.55,236,123.31,236.19,122.9,236.16Zm7.57-2.91a33.29,33.29,0,0,1-4.57-2.57c-.57-.34-.35-.63.08-.89l2.56,1.2h0c2,.28,3.36,1.76,5.15,3C132.26,234.57,131.35,233.6,130.47,233.25Zm39.95,29.24h0c.19.06.32.17.31.35C170.74,262.66,170.61,262.55,170.42,262.49ZM32.22,171.23a.6.6,0,0,1-.44-.36c-.07-.3.19-.51.44-.6s.28.15.32.32C32.42,170.82,32.61,171.21,32.22,171.23Zm-13.81-3.15a.45.45,0,0,1-.41.38c-.29,0-.56,0-.61-.35s.27-.38.52-.44C18.12,167.76,18.51,167.64,18.41,168.08Zm18,11.77c-.17-.06-.19-.17,0-.34a1.57,1.57,0,0,1,1.49.2C37.41,180.44,36.88,180,36.38,179.85ZM39.91,193c-.61-1,.94-1.19.65-2A1.25,1.25,0,0,1,39.91,193Zm4.85,1.34c-.18,0-.4-.11-.37-.4a.75.75,0,0,1,.64-.72c.19,0,.24.26.24.51S45.32,194.45,44.76,194.35ZM56.81,219.6l.83,2C56.52,221.05,56.59,220.46,56.81,219.6Zm.35-7.28c-.15-.08-.36-.14-.38-.22-.24-1.72-.13-1.8-1.78-3.85-.56-.68-.42-2.24-2-2-.17,0-.27-.46-.21-.74.34-1.39-.44-1.91-1.87-2.11,1.18-.94.3-1.85.24-2.76a.93.93,0,0,1,1.13.68C53,203.4,54.57,205,55.5,207h0a2.84,2.84,0,0,1,1,2c.09.48.06.85.58,1.15C58.2,210.76,57.79,211.56,57.16,212.32Zm2.08,2.56a.39.39,0,0,1-.59-.35c0-.41.28-.59.57-.76a.39.39,0,0,1,.46.31C59.82,214.5,59.57,214.73,59.24,214.88Zm6.84,6.79c0-.38.39-.24.65-.24,0,.83.88,1.37.84,2.29C66.35,223.17,66,222.66,66.08,221.67Zm8.13,9.78c-.06,0-.21-.17-.24-.28-.13-.6.08-.9.72-.8a.13.13,0,0,0,0,.12C74.74,230.93,74.8,231.34,74.21,231.45Zm6.52,2.85c-.93.34-.56,1-.52,1.65,0,.4-.26.63-.6.76a.42.42,0,0,1-.37-.08c-.35-.32,0-.61,0-.93.14-.63,1.29-.79.76-1.73-.1-.19.23-.27.44-.28C80.84,233.78,80.86,234.25,80.73,234.3Zm69.71,58.26s.12.07.12.11,0,.21-.18.22h0Zm-33.83-20.87c.86.86,2.55.25,3.17,2C117.63,273.54,117.63,273.54,116.61,271.69Zm60.23,17,.72-.1.15.81C177,289.66,177,289.07,176.84,288.69Zm11.28-26.75a3.55,3.55,0,0,0,2.75.06c.21-.07.53.19.6.5s-.22.47-.47.53a4.58,4.58,0,0,1-3.79-.37C187.5,262.38,187.7,261.77,188.12,261.94Zm-2.18,1.63a8.48,8.48,0,0,0-3.72-.34c-.67.13-.83-.46-.78-1,.06-.71.48-.68,1-.4.36.19.81.2,1.19.36s.58.19.77-.28c.37-.91.89-.83,1.24,0s1.07.33,1.49.69C186.92,263.16,186.89,263.78,185.94,263.57Zm26.45,13.17a40.4,40.4,0,0,0-7.9,3.35,16.4,16.4,0,0,1-5.81,1.62,29,29,0,0,0-7.51,1.93c-.61.26-1.33.56-1.82.21-.84-.61-1.76-.37-2.62-.59-.39.39,0,.94-.26,1.37-.13,0-.33.08-.37,0-.57-.71-1.57-.91-2-1.74-.2-.37-.76-.44-.9-.25-1,1.35-2-.28-3,0-.34.11-.71-.42-.76-.86s.2-1.13.39-1.1c.77.1,1.26-.84,2.14-.39.73.37,1.56-.54,2.47-.06.21.11.71,0,1,.31a.88.88,0,0,0,1.15-.11c1.13-2.2,3.12-.92,4.69-1.18.61-.09,1.13.14,1.58-.57a1.5,1.5,0,0,1,2.06-.41c.46.22,1.21.38,1.21-.21,0-1.35.84-1,1.44-.82,1.22.3,2.34-.51,3.65-.07,1.08.37,1.52-.95,2.09-1.71,0,.44.1.81.55.91s.38-.25.43-.5c1.32-.19,2.36-1.13,3.66-1.34.23,0,.44-.12.49-.33.37-1.68,1.16-1.47,2.15-.51a.39.39,0,0,0,.56,0c.51-.53,1.48-.45,1.74-.71,1.12-1.1,2.66-.75,3.94-1.55.22,1,.08,2.19,1.63,2.64A31.75,31.75,0,0,1,212.39,276.74ZM269,254.49a.58.58,0,0,1-.58-.5,1.94,1.94,0,0,1,1-1.22.45.45,0,0,1,.41.37C270,253.78,269.54,254.56,269,254.49Zm25.14-20.33c-.32,0-.37-.33-.35-.61s.11-.41.35-.39.47.2.46.59C294.61,234,294.49,234.21,294.16,234.16Zm1.17-181.52c-1.35-.08-.61-1.25-1-1.92.83.24,2.05-.28,2,1A.94.94,0,0,1,295.33,52.64Zm33.73,79a.62.62,0,0,1-.35-.39c0-.22.12-.33.56-.3a.79.79,0,0,1,.13.38C329.42,131.57,329.26,131.72,329.06,131.65Z"/><path class="cls-1" d="M79,211.39c-.76-1.7-1.22-3.51-1.91-5.25C76.42,208.39,77.91,209.81,79,211.39Z"/><path class="cls-1" d="M13.92,173.57a6.52,6.52,0,0,0-.32-3.46,10.86,10.86,0,0,0-.06,3.44c-.39.67.68,1.18.13,1.95-.69,1-.09,2.05,0,3.15.62-.29.41-.67.38-1-.08-.83-.32-1.67.85-2,.47-.12.2-.55.11-.87C14.81,174.25,14.21,174,13.92,173.57Z"/><path class="cls-1" d="M9.87,145.17c-1.52,1.42-1.19,3.11-.4,4.86C9.17,148.37,9.81,146.75,9.87,145.17Z"/><path class="cls-1" d="M58.57,203c-.32,0-.6-.36-1.18,0a7.38,7.38,0,0,1,.32.8c.27.9,1,.57,1.51.46s.58-.84.45-1.23C59.37,202.1,58.94,203,58.57,203Z"/><path class="cls-1" d="M77.62,201.37l-3.85.59C76,203.34,76,203.33,77.62,201.37Z"/><path class="cls-1" d="M13.5,168.5c-.44-1.78,0-3.74-1.15-5.4a25.3,25.3,0,0,1,.26,5.36c0,.33.2.5.52.44S13.56,168.78,13.5,168.5Z"/><path class="cls-1" d="M25,135.51v4.28C26.29,138.12,25.67,136.82,25,135.51Z"/><path class="cls-1" d="M161,284.32a5.82,5.82,0,0,1-2.83-.37c0-.94-1.31-.65-1.33-1.43,0-1.18-1-1-1.61-1.49-.12,2.1.07,2,.93,3.55.67,1.21,1.07.22,1.59.13a13.63,13.63,0,0,1,3.24.47c.3.1.77.27.83-.18S161.41,284.32,161,284.32Z"/><path class="cls-1" d="M34.33,239.5a9.85,9.85,0,0,1-1.52-3.31C32.47,237.51,32.47,238.7,34.33,239.5Z"/><path class="cls-1" d="M59.11,190.9c-.88-1.93-.89-1.93-2.37-2.11C57.68,189.52,57.59,191.05,59.11,190.9Z"/><path class="cls-1" d="M59.17,190.89h-.06v0Z"/><path class="cls-1" d="M86.69,280c-.73,0-1.07-.92-2-.75.11,1,.91,1.19,1.38,1.66s.62.05.83-.27S86.94,280,86.69,280Z"/><path class="cls-1" d="M29.3,212.85c-.46-1.1-1.4-1.51-1.69-2.42C27.38,212.46,27.38,212.46,29.3,212.85Z"/><path class="cls-1" d="M331.69,149.12c-.23,0-.28.23-.29.46a3.87,3.87,0,0,0,.5,1.47c0-.43.26-1,.36-1.49A.44.44,0,0,0,331.69,149.12Z"/><path class="cls-1" d="M332,151.44a.76.76,0,0,0-.05-.39A.84.84,0,0,0,332,151.44Z"/><path class="cls-1" d="M17.88,181.46c-.05,0-.13.07-.13.11.1,1.07-.29,2.26.8,3.09.38-1.14-1.12-2-.33-3.13C18,181.49,17.94,181.46,17.88,181.46Z"/><path class="cls-1" d="M54.76,183.52c.32,0,.64-.38.55-.48-.58-.74,0-1.52-.14-2.24,0-.15-.31-.25-.49-.39-.36.89.62,1.86-.21,2.7C54.37,183.21,54.48,183.53,54.76,183.52Z"/><path class="cls-1" d="M22.27,207.38a4.18,4.18,0,0,0-.2-2.85C22,205.48,21.41,206.43,22.27,207.38Z"/><path class="cls-1" d="M21.7,213.15c.42-1.39-.18-2.38-.3-3.43A3.44,3.44,0,0,0,21.7,213.15Z"/><path class="cls-1" d="M42.92,174.9l-.58.08.45,2.4A2.83,2.83,0,0,0,42.92,174.9Z"/><path class="cls-1" d="M331.58,146.51c.62.2-.2,1.17.58,1.3a1.54,1.54,0,0,0-.17-2.05C332.16,146.17,332.21,146.51,331.58,146.51Z"/><path class="cls-1" d="M331.49,146.51v0l-.06-.08a.31.31,0,0,0,.05.1h.09l-.08,0Z"/><path class="cls-1" d="M332,145.76l-.06-.13h0A.44.44,0,0,0,332,145.76Z"/><path class="cls-1" d="M51,178.88a4.65,4.65,0,0,1,.09-1c.11-.38.31-.73-.11-1.09l-.35.49c-.26.36-.83.09-1.17.73C50.13,178,50.23,179,51,178.88Z"/><path class="cls-1" d="M95.08,245.93c0-1.53-.41-2-2.22-2.86Z"/><path class="cls-1" d="M95.11,246l0,0v0Z"/><path class="cls-1" d="M17.23,191.93a4.16,4.16,0,0,0-1.13-3.05C16.58,189.74,16.15,190.91,17.23,191.93Z"/><path class="cls-1" d="M203.35,230.93c-.31-2-1.55-2.44-3.58-1.39C201.24,229.59,202.45,229.56,203.35,230.93Z"/><path class="cls-1" d="M81.08,276.64c.27,1.42,1.33,1.39,2.14,1.65C82.53,277.87,81.91,277.25,81.08,276.64Z"/><path class="cls-1" d="M83.22,278.29a5.68,5.68,0,0,0,.55.28A1.51,1.51,0,0,0,83.22,278.29Z"/><path class="cls-1" d="M25.26,219.52a6.66,6.66,0,0,0-.91-3.32A6.76,6.76,0,0,0,25.26,219.52Z"/><path class="cls-1" d="M26.93,221.53a.36.36,0,0,0-.42.31c-.22.84.45.78.94,1,.33.12.64,0,.59-.25C27.93,222,27.36,221.81,26.93,221.53Z"/><path class="cls-1" d="M57.48,123.66c.5.17.78-.18,1-.5a.93.93,0,0,0,.09-1.14c-.43,0-.49.44-.68.69s-1,0-.75.7A.54.54,0,0,0,57.48,123.66Z"/><path class="cls-1" d="M27.88,143.15c.48,0,.63.47,1,.65s.36-.11.47-.38-.13-.31-.29-.38a7.25,7.25,0,0,1-1-.34c-.33-.22-.71-.71-1-.19S27.4,143.18,27.88,143.15Z"/><path class="cls-1" d="M32.18,159c-.25-.91.4-1.55.24-2.33.18-1.9.18-1.9-.68-2.53v2.51C31.7,157.42,31,158.26,32.18,159Z"/><path class="cls-1" d="M20.59,198.63c-.19-.43-.36-.88-.6-1.45-.93.86-.41,1.45,0,2a.61.61,0,0,0,.77.17C21.3,199.06,20.7,198.87,20.59,198.63Z"/><path class="cls-1" d="M60.1,204.81c.18.24.56.58.8.1s.73-.6,1.66-.9c-1,.16-1.61-.18-2.12.24C60.26,204.4,59.84,204.47,60.1,204.81Z"/><path class="cls-1" d="M64.37,206.37c0-.39,0-.87-.12-1.34,0-.24-.29-.23-.5-.17-.42.12-.27.26-.06.51S63.77,206.21,64.37,206.37Z"/><path class="cls-1" d="M150.48,243.58c-.7-.37-1.21-.65-1.86-.21A1.75,1.75,0,0,0,150.48,243.58Z"/><path class="cls-1" d="M38.06,174c0,.06,0,.12.16.36.69-1.2.7-1.2.41-1.63-.07-.1-.28-.22-.32-.19C37.82,173,38.11,173.54,38.06,174Z"/><path class="cls-1" d="M288.47,243.43l.07,0-.05,0Z"/><path class="cls-1" d="M286.69,244.85l1.78-1.42C287.14,243.15,286.8,244,286.69,244.85Z"/><path class="cls-1" d="M200.8,229.75a.74.74,0,0,0-.72.82c0,.56.5.51.9.53s.93,0,.85-.55S201.24,229.88,200.8,229.75Z"/><path class="cls-1" d="M21.82,201.93a3.13,3.13,0,0,0-.52-2C21.06,200.9,21,201.5,21.82,201.93Z"/><path class="cls-1" d="M84.16,231.73c-.28-.77-.41-1.35-1.47-1.59C83.06,230.92,83.27,231.44,84.16,231.73Z"/><path class="cls-1" d="M8.05,150s-.29,0-.34.12a1,1,0,0,0,0,1,2.91,2.91,0,0,1,0,.43c.17-.29.24-.35.24-.41C8,150.7,8.41,150.32,8.05,150Z"/><path class="cls-1" d="M288.54,243.45l0-.06,0,0Z"/><path class="cls-1" d="M148.26,235.09h0Z"/><path class="cls-1" d="M58,201c-.45-.3-.89-.52-1.24.18A1.92,1.92,0,0,1,58,201Z"/><path class="cls-1" d="M121.89,259.2c0-.28,0-.62-.3-.67-.1,0-.34.37-.4.61a.44.44,0,0,0,.42.53C121.84,259.67,121.86,259.4,121.89,259.2Z"/><path class="cls-1" d="M12.43,190a2,2,0,0,0-.61-1.77C12,188.84,11.49,189.64,12.43,190Z"/><path class="cls-1" d="M79.6,198.78a1.43,1.43,0,0,0-.94-.86C78.52,198.65,79.07,198.66,79.6,198.78Z"/><path class="cls-1" d="M8.91,185.83c.14-1,.11-1.55-.39-2.07A1.74,1.74,0,0,0,8.91,185.83Z"/><path class="cls-1" d="M14.18,143c.31.06.46-.23.51-.47s-.18-.31-.37-.36a.29.29,0,0,0-.35.33C14,142.71,14.08,143,14.18,143Z"/><path class="cls-1" d="M10.06,180.2c-.21.07-.38.24-.28.44a2.73,2.73,0,0,0,.54.59,1.72,1.72,0,0,0,.21-.51C10.54,180.44,10.44,180.17,10.06,180.2Z"/><path class="cls-1" d="M83.48,286.72c.12.59.54.75,1.09.68C84.29,287,84.07,286.56,83.48,286.72Z"/><path class="cls-1" d="M80,272.91a.92.92,0,0,0,.64,1.24c.21-.56.26-1-.18-1.39A.28.28,0,0,0,80,272.91Z"/><path class="cls-1" d="M260.7,266.53c-.28.07-.49.21-.41.54a.42.42,0,0,0,.57.37.51.51,0,0,0,.39-.61C261.24,266.46,261,266.46,260.7,266.53Z"/><path class="cls-1" d="M71.43,211.12c1.12.59,2.91.16,3.11,2.15,0,.52.64.48,1.12.56a8,8,0,0,0,0-2.93c-.5-1.48-1.82-2.59-2-4.25,0-.15-.45-.35-.69-.35s-.08.3-.1.47c.31.45.32.76-.35.72-.43,0-.55-.66-1.12-.47a2,2,0,0,0,.28,1.91c.93.9-.58,1.18-.32,1.83-.46.26-1.19,0-1.47.69C70.64,211.9,71,211.36,71.43,211.12Z"/><path class="cls-1" d="M10.43,141.07c.34,0,.44-.23.48-.51s-.11-.39-.32-.33a.69.69,0,0,0-.38.39A.32.32,0,0,0,10.43,141.07Z"/><path class="cls-1" d="M25.38,141.39a.5.5,0,0,0,.4.61.34.34,0,0,0,.46-.24c.08-.37-.26-.42-.46-.56S25.42,141.16,25.38,141.39Z"/><path class="cls-1" d="M12.59,143.53c0-.11.12-.22.1-.32s0-.41-.31-.28c-.06,0-.06.25,0,.37S12.5,143.46,12.59,143.53Z"/><path class="cls-1" d="M85.82,214.85c.37,0,.33-.4.4-.63s-.07-.5-.41-.5-.51.18-.41.51S85.45,214.8,85.82,214.85Z"/><path class="cls-1" d="M104.69,250.92c.31-.55.34-.94-.29-1.79C104.5,250,104.28,250.45,104.69,250.92Z"/><path class="cls-1" d="M11.68,174.73c.07,0,.11-.38.1-.58s-.07-.41-.34-.42-.23.26-.18.47S11.3,174.79,11.68,174.73Z"/><path class="cls-1" d="M59.21,191c.22.32.45.66.85,1.27C59.94,191.38,59.66,191.08,59.21,191Z"/><path class="cls-1" d="M59.17,190.89l-.05.05.09,0Z"/><path class="cls-1" d="M31.46,224.84c0,.09-.15.19-.13.27.06.31.33.38.59.42s.23-.07.18-.15Z"/><path class="cls-1" d="M8.42,173.52c.45-.1.42-.47.39-.81,0-.08-.11-.16-.24-.35l-.49,1C8.2,173.42,8.32,173.54,8.42,173.52Z"/><path class="cls-1" d="M14.51,179.79c-.33,0-.43.3-.5.57s.1.36.32.43c.38,0,.42-.26.43-.54S14.73,179.79,14.51,179.79Z"/><path class="cls-1" d="M64.56,267c-.23.05-.38.21-.26.41a4.42,4.42,0,0,0,.56.59,1.84,1.84,0,0,0,.21-.51C65.09,267.17,64.86,267,64.56,267Z"/><path class="cls-1" d="M51.78,130.75s.15-.15.22-.23c0-.33-.21-.49-.45-.64,0,0-.19.17-.17.2C51.51,130.31,51.46,130.66,51.78,130.75Z"/><path class="cls-1" d="M69.09,193c.18.08.32-.09.27-.35s-.35-.54-.67-.73c-.06.19-.2.42-.14.54A1.23,1.23,0,0,0,69.09,193Z"/><path class="cls-1" d="M146.53,283.86c-.14.2,0,.35.19.39s.21-.07.32-.11c-.06-.11-.1-.25-.19-.31S146.56,283.8,146.53,283.86Z"/><path class="cls-1" d="M79.89,203.82a1.14,1.14,0,0,0-1.49,0A1.11,1.11,0,0,0,79.89,203.82Z"/><path class="cls-1" d="M114.61,224.36c-.12-.16-.27-.32-.47-.1a3.47,3.47,0,0,0-.26.33c.22,0,.41,0,.61,0S114.73,224.52,114.61,224.36Z"/><path class="cls-1" d="M20.15,215.77a2.37,2.37,0,0,0-.24-1.74C20,214.75,19.81,215.18,20.15,215.77Z"/><path class="cls-1" d="M23.7,208.91a1.33,1.33,0,0,0,.26,1.15C23.85,209.7,24.32,209.27,23.7,208.91Z"/><path class="cls-1" d="M27,145.5c.2-.13.54-.29.27-.63a2.38,2.38,0,0,0-.45-.39c-.29.21-.23.49-.19.75S26.75,145.68,27,145.5Z"/><path class="cls-1" d="M11.81,205.67a1.11,1.11,0,0,0-.07-.16A.77.77,0,0,0,11.81,205.67Z"/><path class="cls-1" d="M11.62,204.51c-.37.41,0,.69.12,1C11.68,205.18,11.89,204.81,11.62,204.51Z"/><path class="cls-1" d="M25,148.14c-.18.73.67,1,.71,1.67.1,2.16,1.32,4.06,1.48,6.24a5.93,5.93,0,0,0,1.34,3c.46-.59-.13-1.23.11-1.81.46-.36.95.23,1.4-.08.21-.14.46-.2.23-.61a6,6,0,0,1-.77-4.31c.3-1.44-.22-2.89,0-4.35,0-.34,0-1-1.13-1,.94,1.29.51,2.48.07,3.87a6.21,6.21,0,0,0-1.79-.86c-.67-.23-1-.75-.12-1.3a.52.52,0,0,0,.06-.73c-.59-.23-1.08.34-1.65.17h0l-.06,0Zm2.72,4.69c.75,0,.92.63.95,1.1.05.82.61,1.59.27,2.44a.55.55,0,0,1-.29.25c-.24.12-.39-.07-.52-.22a.62.62,0,0,1-.18-.36,10.38,10.38,0,0,1,0-1.67C28,153.84,27.2,153.42,27.71,152.83Z"/><path class="cls-1" d="M11.83,205.71a.08.08,0,0,1,0,0s0,0,0,.06h0l.06,0Z"/><path class="cls-1" d="M213.73,274.75c-.23.06-.4.31-.64.51.19.18.31.39.47.43.47.12.3-.31.37-.51S213.91,274.7,213.73,274.75Z"/><path class="cls-1" d="M184.94,282.67a.31.31,0,0,0,.24.19.44.44,0,0,0,.4-.39c-.09-.06-.19-.18-.27-.17S184.9,282.4,184.94,282.67Z"/><path class="cls-1" d="M142.57,265.13a.31.31,0,0,0,.13-.31.32.32,0,0,0-.31-.14c-.08,0-.11.21-.15.32S142.49,265.16,142.57,265.13Z"/></svg>